# xmcd
# 
# Track frame offsets:
#     150
#     17298
#     38139
#     55203
# 
# Disc length: 1011
# 
# Revision: 0
# Processed by: cddbd v1.5.2PL0 Copyright (c) Steve Scherf et al.
# Submitted via: fre:ac v1.0.27
# 
DISCID=2403f104
DTITLE=Unlimited tone - うたたねサンシャイン
DYEAR=2016
DGENRE=Anime
TTITLE0=うたたねサンシャイン
TTITLE1=Door
TTITLE2=うたたねサンシャイン（off vocal）
TTITLE3=Door（off vocal）
EXTD=
EXTT0=TVアニメ「田中くんはいつもけだるげ」オープニング主題歌
EXTT1=
EXTT2=
EXTT3=
PLAYORDER=
